<svg width="24" height="24" viewBox="0 0 24 24" fill="none" xmlns="http://www.w3.org/2000/svg">
<path d="M20.7845 11.4963L12.7763 3.75079L12 3L5.97173 8.83052L3.21552 11.4963C3.07752 11.6299 3 11.8111 3 12C3 12.1889 3.07752 12.37 3.21552 12.5037L8.72302 17.8305L12 21L18.0283 15.1695L18.1216 15.0792L20.7845 12.5037C20.9225 12.37 21 12.1889 21 12C21 11.8111 20.9225 11.6299 20.7845 11.4963ZM12 14.661L9.24871 12L12 9.33896L14.7513 12L12 14.661Z" fill="#2684FF"/>
<path d="M11.9999 9.33894C11.1346 8.50191 10.6468 7.36774 10.6432 6.18407C10.6395 5.00041 11.1202 3.86341 11.9803 3.02136L5.95935 8.84238L9.23633 12.0119L11.9999 9.33894Z" fill="url(#paint0_linear_331_810)"/>
<path d="M14.7587 11.9929L12 14.6611C12.4305 15.0772 12.772 15.5713 13.005 16.1151C13.238 16.659 13.3579 17.2419 13.3579 17.8306C13.3579 18.4192 13.238 19.0021 13.005 19.546C12.772 20.0898 12.4305 20.5839 12 21L18.0356 15.1624L14.7587 11.9929Z" fill="url(#paint1_linear_331_810)"/>
<defs>
<linearGradient id="paint0_linear_331_810" x1="11.5086" y1="6.64702" x2="7.79473" y2="10.4869" gradientUnits="userSpaceOnUse">
<stop offset="0.18" stop-color="#0052CC"/>
<stop offset="1" stop-color="#2684FF"/>
</linearGradient>
<linearGradient id="paint1_linear_331_810" x1="246.062" y1="554.943" x2="376.103" y2="467.803" gradientUnits="userSpaceOnUse">
<stop offset="0.18" stop-color="#0052CC"/>
<stop offset="1" stop-color="#2684FF"/>
</linearGradient>
</defs>
</svg>
