<svg width="24" height="24" viewBox="0 0 24 24" fill="none" xmlns="http://www.w3.org/2000/svg">
<path d="M16.7607 16.7886C16.8791 15.7432 16.8396 15.5854 17.6286 15.7629L17.8259 15.7826C18.4176 15.8023 19.2066 15.684 19.6603 15.467C20.6465 15.0133 21.2383 14.2441 20.252 14.4413C18.0231 14.895 17.8653 14.1454 17.8653 14.1454C20.2126 10.6541 21.1988 6.21598 20.3507 5.13111C18.0626 2.19208 14.0584 3.57283 13.9795 3.61228H13.9598C13.5258 3.51366 13.0327 3.47421 12.4804 3.45448C11.4744 3.43476 10.7051 3.71091 10.1331 4.16458C10.1331 4.16458 2.99266 1.22556 3.30826 7.87288C3.38716 9.29308 5.33993 18.5836 7.66748 15.7629C8.51566 14.7372 9.34411 13.8693 9.34411 13.8693C9.75833 14.1454 10.2515 14.2835 10.7643 14.2243L10.8038 14.1849C10.784 14.3032 10.8038 14.4413 10.8235 14.5794C10.2317 15.25 10.3895 15.3684 9.20603 15.6248C7.98308 15.8812 8.71291 16.3152 9.16658 16.4335C9.73861 16.5716 11.0405 16.7689 11.9281 15.5459L11.8886 15.684C12.1253 15.8812 12.1056 17.045 12.1451 17.8735C12.1845 18.7019 12.2437 19.4909 12.4015 19.9446C12.579 20.3983 12.7763 21.5818 14.3543 21.2464C15.6561 20.99 16.6818 20.5758 16.7607 16.7886Z" fill="black"/>
<path d="M20.2718 14.4413C18.0428 14.895 17.885 14.1454 17.885 14.1454C20.2323 10.6541 21.2186 6.21598 20.3704 5.13111C18.0626 2.19208 14.0584 3.57283 13.9795 3.61228H13.9598C13.5258 3.51366 13.0327 3.47421 12.4804 3.45448C11.4744 3.43476 10.7051 3.71091 10.1331 4.16458C10.1331 4.16458 2.99266 1.22556 3.30826 7.87288C3.38716 9.29308 5.33993 18.5836 7.66748 15.7629C8.51566 14.7372 9.34411 13.8693 9.34411 13.8693C9.75833 14.1454 10.2515 14.2835 10.7643 14.2243L10.8038 14.1849C10.784 14.3032 10.8038 14.4413 10.8235 14.5794C10.2317 15.25 10.3895 15.3684 9.20603 15.6248C7.98308 15.8812 8.71291 16.3152 9.16658 16.4335C9.73861 16.5716 11.0405 16.7689 11.9281 15.5459L11.8886 15.684C12.1253 15.8812 12.2831 16.9069 12.2634 17.8537C12.2437 18.8005 12.224 19.4515 12.4015 19.9446C12.579 20.4574 12.7763 21.5818 14.3543 21.2464C15.6758 20.9703 16.3662 20.2207 16.4451 18.9978C16.5043 18.1299 16.6621 18.2482 16.6818 17.479L16.8002 17.1042C16.9382 15.9207 16.8199 15.5459 17.6286 15.7234L17.8259 15.7432C18.4176 15.7629 19.2066 15.6445 19.6603 15.4276C20.6663 15.0133 21.258 14.2441 20.2718 14.4413Z" fill="#336791"/>
<path d="M13.9006 21.6409C12.579 21.6409 12.145 20.5955 11.9872 20.1615C11.7308 19.5303 11.6716 17.1633 11.7308 15.1119C11.7308 14.9541 11.8689 14.8358 12.007 14.8358C12.1648 14.8358 12.2831 14.9738 12.2831 15.1119C12.2239 17.4197 12.3226 19.4909 12.5001 19.9445C12.7762 20.6546 13.2102 21.2858 14.4331 21.0097C15.6166 20.7533 16.0309 20.339 16.2281 19.195C16.3859 18.3271 16.6818 15.8417 16.7212 15.3486C16.741 15.1908 16.8593 15.0922 17.0171 15.0922C17.1749 15.1119 17.2735 15.2303 17.2735 15.3881C17.2341 15.9009 16.9382 18.3665 16.7804 19.2739C16.5437 20.6349 15.952 21.2464 14.5515 21.5423C14.3148 21.6212 14.0978 21.6409 13.9006 21.6409Z" fill="white"/>
<path d="M6.76009 16.5519C6.62201 16.5519 6.52339 16.5321 6.40504 16.4927C5.53714 16.1968 4.72841 14.8161 3.97886 12.3307C3.40684 10.4568 3.05179 8.50406 3.01234 7.85313C2.91371 5.95953 3.40684 4.61823 4.47199 3.86868C5.35961 3.23748 6.60229 3.04023 8.16056 3.29666C9.30461 3.47418 10.1725 3.82923 10.212 3.84896C10.35 3.90813 10.4289 4.06593 10.3698 4.20401C10.3106 4.34208 10.1528 4.42098 10.0147 4.36181C9.97526 4.36181 6.62201 3.02051 4.78759 4.32236C3.89996 4.95356 3.48574 6.13706 3.56464 7.83341C3.58436 8.36598 3.93941 10.2793 4.51144 12.1729C5.18209 14.3624 5.93164 15.7431 6.60229 15.9601C6.70091 15.9996 7.01651 16.0982 7.45046 15.5656C8.29864 14.5399 9.08764 13.7312 9.08764 13.7115C9.18626 13.5931 9.36379 13.5931 9.48214 13.7115C9.60049 13.8101 9.60049 13.9876 9.48214 14.106C9.48214 14.106 8.71286 14.9147 7.86469 15.9207C7.47019 16.4138 7.07569 16.5519 6.76009 16.5519Z" fill="white"/>
<path d="M17.8849 14.4018C17.8258 14.4018 17.7863 14.3821 17.7271 14.3624C17.6088 14.2835 17.5693 14.106 17.6482 13.9876C20.0152 10.4568 20.8634 6.21597 20.1533 5.30862C19.2657 4.16457 18.0033 3.57282 16.4056 3.53337C15.2221 3.51364 14.2753 3.80952 14.1175 3.86869C14.0977 3.86869 14.0977 3.88842 14.078 3.88842C13.9202 3.94759 13.7821 3.84897 13.7427 3.75034C13.6835 3.63199 13.723 3.47419 13.861 3.39529C13.9597 3.33612 15.0445 2.98107 16.3464 3.00079C18.1216 3.02052 19.601 3.71089 20.607 4.99302C20.8634 5.30862 20.9818 5.84119 20.962 6.53157C20.9423 7.18249 20.824 7.97149 20.607 8.81967C20.1336 10.6738 19.2262 12.6858 18.1216 14.3032C18.0427 14.3624 17.9638 14.4018 17.8849 14.4018Z" fill="white"/>
<path d="M18.0033 16.0193C17.5891 16.0193 17.234 15.9601 16.9973 15.822C16.7606 15.684 16.7212 15.4867 16.7212 15.3881C16.662 14.3229 17.234 14.1257 17.5496 14.0271C17.5102 13.9679 17.451 13.9087 17.4115 13.8298C17.234 13.6128 16.9973 13.2972 16.8001 12.8436C16.7803 12.7647 16.6817 12.6069 16.5831 12.4293C16.0111 11.4036 14.8078 9.25362 15.5771 8.14902C15.9322 7.63617 16.6423 7.43892 17.668 7.53755C17.5299 7.12332 17.1946 6.37377 16.5634 5.62422C15.7941 4.79577 14.4922 3.75035 12.4606 3.7109C11.4349 3.69117 10.5867 4.00677 9.93577 4.6577C8.51557 6.09762 8.55502 8.72105 8.55502 8.74077C8.55502 8.89857 8.43667 9.01692 8.27887 9.01692C8.12107 9.01692 8.00272 8.89857 8.00272 8.74077C8.00272 8.62242 7.94355 5.86092 9.54127 4.2632C10.2908 3.51365 11.2771 3.13887 12.4606 3.1586C14.6698 3.19805 16.1097 4.32237 16.9184 5.26917C17.806 6.29487 18.2203 7.4192 18.2597 7.79397C18.2794 8.08985 18.0625 8.14902 18.023 8.16875H17.9244C16.662 7.9715 16.1886 8.22792 15.9913 8.50407C15.4193 9.33252 16.5436 11.3445 17.017 12.1926C17.1354 12.4096 17.234 12.5674 17.2735 12.666C17.4313 13.0408 17.6285 13.2972 17.806 13.5142C17.9441 13.6917 18.0822 13.8495 18.1216 14.0468C18.1414 14.0862 18.457 14.5005 20.173 14.1454C20.6267 14.0468 20.9029 14.1257 20.9818 14.3821C21.1396 14.8752 20.2322 15.4473 19.7391 15.684C19.3249 15.9009 18.6148 16.0193 18.0033 16.0193ZM17.2735 15.3486C17.3326 15.4078 17.6285 15.4867 18.1808 15.467C18.6937 15.4473 19.2262 15.3289 19.5418 15.1908C19.9166 15.0133 20.173 14.8358 20.3308 14.678C20.3308 14.678 20.3308 14.678 20.3111 14.678C19.1868 14.9147 18.3781 14.8752 17.9244 14.5794C17.9047 14.5596 17.8652 14.5399 17.8455 14.5202C17.806 14.5399 17.7666 14.5399 17.7271 14.5596C17.4707 14.6385 17.234 14.6977 17.2735 15.3486Z" fill="white"/>
<path d="M9.95553 16.8083C9.67938 16.8083 9.3835 16.7688 9.0679 16.6899C8.989 16.6702 8.21973 16.4532 8.21973 15.9798C8.21973 15.5261 8.87065 15.3881 9.10735 15.3486C9.95553 15.1711 10.0147 15.1119 10.2711 14.7766C10.35 14.678 10.4487 14.5596 10.5867 14.4018C11.0207 13.9087 11.4546 14.0862 11.6322 14.1454C11.9083 14.2637 12.145 14.5399 12.2436 14.8752C12.3225 15.1711 12.2831 15.467 12.1253 15.7037C11.5927 16.4335 10.8432 16.8083 9.95553 16.8083ZM8.8312 15.9995C8.9101 16.0587 9.04818 16.1179 9.20598 16.1573C9.9358 16.3349 10.9615 16.3546 11.6716 15.3683C11.7505 15.25 11.7308 15.0922 11.7111 15.0133C11.6716 14.8555 11.5533 14.6977 11.4152 14.6385C11.2574 14.5793 11.1785 14.5399 11.001 14.7371C10.8826 14.8752 10.784 14.9936 10.7051 15.0725C10.3698 15.5064 10.212 15.6445 9.20598 15.8417C9.02845 15.9206 8.9101 15.9798 8.8312 15.9995Z" fill="white"/>
<path d="M10.7643 14.8358C10.6262 14.8358 10.5079 14.7372 10.4882 14.5991C10.4882 14.5596 10.4882 14.5202 10.4684 14.4807C9.81751 14.461 9.18631 14.1849 8.71291 13.6917C8.10144 13.0605 7.82528 12.1729 7.96336 11.2853C8.10143 10.3188 8.04226 9.47059 8.02254 9.01692C8.02254 8.89857 8.00281 8.79994 8.00281 8.74077C8.00281 8.66187 8.00281 8.42517 8.73263 8.07012C8.98906 7.93204 9.50191 7.71507 10.0542 7.65589C10.9813 7.55727 11.6125 7.97149 11.79 8.83939C12.2831 11.1275 11.8295 12.1335 11.4941 12.8633C11.435 13.0014 11.3758 13.1197 11.3363 13.2578L11.2969 13.3761C11.1194 13.8495 10.9813 14.244 11.0207 14.5399C11.0405 14.6977 10.9418 14.8358 10.784 14.8555C10.784 14.8358 10.784 14.8358 10.7643 14.8358ZM8.57483 8.81967C8.57483 8.85912 8.57483 8.91829 8.57483 8.99719C8.59456 9.47059 8.65373 10.3582 8.51566 11.3839C8.41703 12.1137 8.63401 12.8238 9.12713 13.3367C9.50191 13.7312 10.0148 13.9679 10.5276 13.9679C10.5868 13.7312 10.6854 13.455 10.784 13.1789L10.8235 13.0605C10.8827 12.9225 10.9418 12.7844 11.001 12.6266C11.3166 11.9165 11.7111 11.0486 11.2574 8.93802C11.1785 8.52379 10.9616 8.28709 10.6065 8.20819C9.87668 8.05039 8.79181 8.62242 8.57483 8.81967Z" fill="white"/>
<path d="M10.0938 8.70133C10.0741 8.79996 10.2516 9.03666 10.4883 9.05638C10.725 9.09583 10.9222 8.89858 10.9222 8.81968C10.942 8.72106 10.7644 8.62243 10.5277 8.60271C10.3108 8.56326 10.0938 8.62243 10.0938 8.70133Z" fill="white"/>
<path d="M10.5474 9.15498C10.5276 9.15498 10.5079 9.15498 10.4882 9.15498C10.3501 9.13526 10.1923 9.03663 10.0937 8.91828C10.0542 8.87883 9.99506 8.78021 10.0148 8.70131C10.0148 8.66186 10.0345 8.62241 10.0937 8.58296C10.1923 8.50406 10.3698 8.48433 10.5671 8.52378C10.8038 8.56323 11.0602 8.68158 11.0405 8.85911C11.001 8.97746 10.7841 9.15498 10.5474 9.15498ZM10.1923 8.72103C10.212 8.78021 10.3304 8.95773 10.5079 8.97746C10.6854 8.99718 10.8235 8.85911 10.8432 8.81966C10.8235 8.79993 10.7249 8.72103 10.5276 8.70131C10.3304 8.66186 10.212 8.70131 10.1923 8.72103Z" fill="white"/>
<path d="M17.1553 8.52382C17.175 8.62245 16.9975 8.85915 16.7608 8.87887C16.5241 8.91832 16.3268 8.72107 16.3268 8.64217C16.3071 8.54355 16.4846 8.44492 16.7213 8.4252C16.9383 8.38575 17.1355 8.4252 17.1553 8.52382Z" fill="white"/>
<path d="M16.7016 8.93803C16.4649 8.93803 16.2873 8.76051 16.2676 8.64216C16.2479 8.50408 16.4649 8.40546 16.7016 8.36601C16.9383 8.32656 17.175 8.36601 17.1947 8.50408C17.1947 8.56326 17.1552 8.66188 17.0763 8.74078C17.0172 8.79996 16.9185 8.89858 16.7607 8.91831C16.741 8.93803 16.7213 8.93803 16.7016 8.93803ZM16.8594 8.44491C16.8199 8.44491 16.7805 8.44491 16.7213 8.46463C16.4846 8.50408 16.3662 8.60271 16.3662 8.64216C16.3662 8.70133 16.5438 8.87886 16.7607 8.83941C16.8791 8.81968 16.9777 8.74078 17.0172 8.70133C17.0961 8.62243 17.1158 8.56326 17.1158 8.54353C17.0961 8.50408 17.0172 8.44491 16.8594 8.44491Z" fill="white"/>
<path d="M17.4905 13.7312C17.4313 13.7312 17.3919 13.7115 17.3327 13.6918C17.2144 13.6129 17.1749 13.4353 17.2538 13.317C17.7864 12.5083 17.6878 11.6798 17.5891 10.8908C17.5497 10.5555 17.5102 10.2004 17.5102 9.84538C17.53 9.49033 17.5694 9.21418 17.6089 8.93803C17.668 8.6027 17.7075 8.30683 17.6878 7.93205C17.6878 7.77425 17.8061 7.6559 17.9442 7.63618C18.102 7.63618 18.2203 7.75453 18.2401 7.8926C18.2598 8.32655 18.2006 8.66188 18.1612 9.01693C18.1217 9.27335 18.0823 9.5495 18.0625 9.8651C18.0625 10.161 18.0823 10.4766 18.1217 10.8119C18.2203 11.6601 18.3387 12.6266 17.6878 13.6129C17.668 13.672 17.5694 13.7312 17.4905 13.7312Z" fill="white"/>
</svg>
